<svg xmlns="http://www.w3.org/2000/svg" version="1.1" xmlns:xlink="http://www.w3.org/1999/xlink" width="1000" height="1000"><g clip-path="url(#SvgjsClipPath1233)"><rect width="1000" height="1000" fill="#ffffff"></rect><g transform="matrix(0.896414342629482,0,0,0.896414342629482,50,54.482071713147434)"><svg xmlns="http://www.w3.org/2000/svg" version="1.1" xmlns:xlink="http://www.w3.org/1999/xlink" width="1004" height="994"><svg xmlns="http://www.w3.org/2000/svg" viewBox="0 0 1004 994" preserveAspectRatio="xMidYMid meet">
  <g transform="translate(0,994) scale(0.1,-0.1)" fill="#5502a6" stroke="none">
    <path d="M3494 7745 c-108 -17 -250 -85 -320 -153 -138 -134 -204 -305 -191
-496 6 -94 42 -207 83 -268 50 -74 205 -227 281 -278 109 -73 167 -91 304 -98
102 -4 126 -2 190 18 98 29 141 52 220 116 85 67 132 132 177 242 63 156 55
338 -24 495 -73 145 -264 326 -405 383 -55 23 -86 30 -209 48 -14 2 -61 -2
-106 -9z"></path>
    <path d="M5635 7485 c-312 -35 -623 -162 -855 -349 -344 -278 -558 -656 -625
-1101 -23 -154 -19 -372 10 -515 2 -14 7 -38 10 -55 4 -16 10 -41 15 -55 4
-14 13 -52 20 -85 7 -33 21 -89 31 -125 23 -82 68 -253 79 -300 4 -19 24 -91
43 -160 19 -69 42 -154 51 -190 14 -60 65 -255 86 -325 102 -350 99 -459 -17
-629 -58 -85 -111 -113 -248 -127 -54 -6 -461 -9 -1025 -7 -607 2 -941 -1
-952 -7 -18 -11 -103 -115 -258 -314 -52 -68 -153 -198 -225 -290 -71 -91
-150 -193 -175 -226 -25 -33 -48 -62 -51 -65 -12 -10 -186 -246 -198 -269 -16
-29 -2 -42 44 -40 71 3 73 1 54 -71 -6 -23 361 -28 1716 -23 962 3 1203 7
1305 19 305 36 581 143 809 312 139 104 305 272 367 373 16 26 43 66 60 90 52
74 105 179 151 299 86 226 106 339 107 590 0 201 -12 300 -53 455 -28 105
-143 524 -202 740 -28 105 -62 235 -75 290 -12 55 -39 161 -59 235 -63 231
-52 359 46 498 40 59 74 83 159 116 55 21 62 21 1055 21 550 1 1010 4 1022 8
11 4 68 69 126 145 58 75 169 218 246 317 77 99 166 214 198 255 31 41 64 82
72 90 8 8 39 49 70 90 30 41 90 119 133 174 43 54 78 104 78 111 0 12 -51 25
-102 25 -32 0 -34 6 -13 34 8 11 15 28 15 38 0 17 -58 18 -1467 17 -1089 -1
-1496 -5 -1578 -14z"></path>
  </g>
</svg></svg></g></g><defs><clipPath id="SvgjsClipPath1233"><rect width="1000" height="1000" x="0" y="0" rx="350" ry="350"></rect></clipPath></defs></svg>